<mxfile host="app.diagrams.net" agent="Mozilla/5.0 (Windows NT 10.0; Win64; x64; rv:144.0) Gecko/20100101 Firefox/144.0" version="28.2.8">
  <diagram name="Page-1" id="U8B4osOjnHcBX_VdCc79">
    <mxGraphModel grid="1" page="1" gridSize="10" guides="1" tooltips="1" connect="1" arrows="1" fold="1" pageScale="1" pageWidth="850" pageHeight="1100" math="0" shadow="0">
      <root>
        <mxCell id="0" />
        <mxCell id="1" parent="0" />
        <mxCell id="sS6YEZVTCWvvT9ZWCGsS-17" style="edgeStyle=orthogonalEdgeStyle;rounded=0;orthogonalLoop=1;jettySize=auto;html=1;" edge="1" parent="1" source="sS6YEZVTCWvvT9ZWCGsS-1" target="sS6YEZVTCWvvT9ZWCGsS-6">
          <mxGeometry relative="1" as="geometry" />
        </mxCell>
        <mxCell id="sS6YEZVTCWvvT9ZWCGsS-51" value="" style="edgeStyle=orthogonalEdgeStyle;rounded=0;orthogonalLoop=1;jettySize=auto;html=1;" edge="1" parent="1" source="sS6YEZVTCWvvT9ZWCGsS-1" target="sS6YEZVTCWvvT9ZWCGsS-50">
          <mxGeometry relative="1" as="geometry" />
        </mxCell>
        <mxCell id="sS6YEZVTCWvvT9ZWCGsS-1" value="3.1. View Financial Summary" style="ellipse;whiteSpace=wrap;html=1;aspect=fixed;" vertex="1" parent="1">
          <mxGeometry x="450" y="310" width="80" height="80" as="geometry" />
        </mxCell>
        <mxCell id="sS6YEZVTCWvvT9ZWCGsS-58" style="edgeStyle=orthogonalEdgeStyle;rounded=0;orthogonalLoop=1;jettySize=auto;html=1;entryX=0;entryY=0.5;entryDx=0;entryDy=0;" edge="1" parent="1" source="sS6YEZVTCWvvT9ZWCGsS-2" target="sS6YEZVTCWvvT9ZWCGsS-50">
          <mxGeometry relative="1" as="geometry" />
        </mxCell>
        <mxCell id="sS6YEZVTCWvvT9ZWCGsS-2" value="3.2. Paying Page" style="ellipse;whiteSpace=wrap;html=1;aspect=fixed;" vertex="1" parent="1">
          <mxGeometry x="245" y="420" width="80" height="80" as="geometry" />
        </mxCell>
        <mxCell id="sS6YEZVTCWvvT9ZWCGsS-3" value="" style="curved=1;endArrow=classic;html=1;rounded=0;entryX=0;entryY=0.5;entryDx=0;entryDy=0;" edge="1" parent="1" target="sS6YEZVTCWvvT9ZWCGsS-2">
          <mxGeometry width="50" height="50" relative="1" as="geometry">
            <mxPoint x="100" y="460" as="sourcePoint" />
            <mxPoint x="180" y="420" as="targetPoint" />
            <Array as="points">
              <mxPoint x="180" y="470" />
              <mxPoint x="130" y="420" />
            </Array>
          </mxGeometry>
        </mxCell>
        <mxCell id="sS6YEZVTCWvvT9ZWCGsS-5" value="Fee" style="shape=partialRectangle;whiteSpace=wrap;html=1;left=0;right=0;fillColor=none;" vertex="1" parent="1">
          <mxGeometry x="140" y="600" width="120" height="30" as="geometry" />
        </mxCell>
        <mxCell id="sS6YEZVTCWvvT9ZWCGsS-6" value="Transaction" style="shape=partialRectangle;whiteSpace=wrap;html=1;left=0;right=0;fillColor=none;" vertex="1" parent="1">
          <mxGeometry x="660" y="320" width="120" height="60" as="geometry" />
        </mxCell>
        <mxCell id="sS6YEZVTCWvvT9ZWCGsS-7" value="" style="endArrow=classic;html=1;rounded=0;entryX=0.25;entryY=0;entryDx=0;entryDy=0;exitX=0;exitY=1;exitDx=0;exitDy=0;" edge="1" parent="1" source="sS6YEZVTCWvvT9ZWCGsS-2" target="sS6YEZVTCWvvT9ZWCGsS-5">
          <mxGeometry width="50" height="50" relative="1" as="geometry">
            <mxPoint x="350" y="500" as="sourcePoint" />
            <mxPoint x="400" y="450" as="targetPoint" />
          </mxGeometry>
        </mxCell>
        <mxCell id="sS6YEZVTCWvvT9ZWCGsS-9" value="Payment Confirmation" style="text;html=1;whiteSpace=wrap;strokeColor=none;fillColor=none;align=center;verticalAlign=middle;rounded=0;" vertex="1" parent="1">
          <mxGeometry x="510" y="640" width="60" height="30" as="geometry" />
        </mxCell>
        <mxCell id="sS6YEZVTCWvvT9ZWCGsS-14" value="Transaction Summary" style="text;html=1;whiteSpace=wrap;strokeColor=none;fillColor=none;align=center;verticalAlign=middle;rounded=0;" vertex="1" parent="1">
          <mxGeometry x="520" y="200" width="105" height="30" as="geometry" />
        </mxCell>
        <mxCell id="sS6YEZVTCWvvT9ZWCGsS-16" value="" style="curved=1;endArrow=classic;html=1;rounded=0;entryX=0;entryY=0.5;entryDx=0;entryDy=0;" edge="1" parent="1" target="sS6YEZVTCWvvT9ZWCGsS-1">
          <mxGeometry width="50" height="50" relative="1" as="geometry">
            <mxPoint x="335" y="350" as="sourcePoint" />
            <mxPoint x="480" y="350" as="targetPoint" />
            <Array as="points">
              <mxPoint x="415" y="360" />
              <mxPoint x="365" y="310" />
            </Array>
          </mxGeometry>
        </mxCell>
        <mxCell id="sS6YEZVTCWvvT9ZWCGsS-18" value="Transaction Reports Request" style="text;html=1;whiteSpace=wrap;strokeColor=none;fillColor=none;align=center;verticalAlign=middle;rounded=0;" vertex="1" parent="1">
          <mxGeometry x="540" y="320" width="100" height="30" as="geometry" />
        </mxCell>
        <mxCell id="sS6YEZVTCWvvT9ZWCGsS-19" value="Transaction History" style="text;html=1;whiteSpace=wrap;strokeColor=none;fillColor=none;align=center;verticalAlign=middle;rounded=0;" vertex="1" parent="1">
          <mxGeometry x="540" y="370" width="100" height="30" as="geometry" />
        </mxCell>
        <mxCell id="sS6YEZVTCWvvT9ZWCGsS-20" style="edgeStyle=orthogonalEdgeStyle;rounded=0;orthogonalLoop=1;jettySize=auto;html=1;exitX=0;exitY=0.75;exitDx=0;exitDy=0;entryX=0.962;entryY=0.691;entryDx=0;entryDy=0;entryPerimeter=0;" edge="1" parent="1" source="sS6YEZVTCWvvT9ZWCGsS-6" target="sS6YEZVTCWvvT9ZWCGsS-1">
          <mxGeometry relative="1" as="geometry">
            <mxPoint x="390" y="459.83" as="sourcePoint" />
            <mxPoint x="510" y="459.83" as="targetPoint" />
          </mxGeometry>
        </mxCell>
        <mxCell id="sS6YEZVTCWvvT9ZWCGsS-22" value="" style="curved=1;endArrow=classic;html=1;rounded=0;exitX=0.5;exitY=0;exitDx=0;exitDy=0;" edge="1" parent="1" source="sS6YEZVTCWvvT9ZWCGsS-1">
          <mxGeometry width="50" height="50" relative="1" as="geometry">
            <mxPoint x="550" y="250" as="sourcePoint" />
            <mxPoint x="530" y="220" as="targetPoint" />
            <Array as="points">
              <mxPoint x="500" y="250" />
            </Array>
          </mxGeometry>
        </mxCell>
        <mxCell id="sS6YEZVTCWvvT9ZWCGsS-23" value="Financial Summary Request" style="text;html=1;whiteSpace=wrap;strokeColor=none;fillColor=none;align=center;verticalAlign=middle;rounded=0;" vertex="1" parent="1">
          <mxGeometry x="190" y="345" width="155" height="30" as="geometry" />
        </mxCell>
        <mxCell id="sS6YEZVTCWvvT9ZWCGsS-49" value="Payment" style="text;html=1;whiteSpace=wrap;strokeColor=none;fillColor=none;align=center;verticalAlign=middle;rounded=0;" vertex="1" parent="1">
          <mxGeometry x="20" y="445" width="80" height="30" as="geometry" />
        </mxCell>
        <mxCell id="sS6YEZVTCWvvT9ZWCGsS-50" value="Student" style="shape=partialRectangle;whiteSpace=wrap;html=1;left=0;right=0;fillColor=none;" vertex="1" parent="1">
          <mxGeometry x="430" y="440" width="120" height="40" as="geometry" />
        </mxCell>
        <mxCell id="sS6YEZVTCWvvT9ZWCGsS-52" value="Student Information Request" style="text;html=1;whiteSpace=wrap;strokeColor=none;fillColor=none;align=center;verticalAlign=middle;rounded=0;" vertex="1" parent="1">
          <mxGeometry x="500" y="390" width="60" height="30" as="geometry" />
        </mxCell>
        <mxCell id="sS6YEZVTCWvvT9ZWCGsS-53" value="Student Information&amp;nbsp;" style="text;html=1;whiteSpace=wrap;strokeColor=none;fillColor=none;align=center;verticalAlign=middle;rounded=0;" vertex="1" parent="1">
          <mxGeometry x="395" y="390" width="60" height="30" as="geometry" />
        </mxCell>
        <mxCell id="sS6YEZVTCWvvT9ZWCGsS-57" value="" style="edgeStyle=orthogonalEdgeStyle;rounded=0;orthogonalLoop=1;jettySize=auto;html=1;exitX=0.25;exitY=0;exitDx=0;exitDy=0;entryX=0.125;entryY=0.829;entryDx=0;entryDy=0;entryPerimeter=0;" edge="1" parent="1" source="sS6YEZVTCWvvT9ZWCGsS-50" target="sS6YEZVTCWvvT9ZWCGsS-1">
          <mxGeometry relative="1" as="geometry">
            <mxPoint x="409.76" y="435" as="sourcePoint" />
            <mxPoint x="409.76" y="485" as="targetPoint" />
          </mxGeometry>
        </mxCell>
        <mxCell id="sS6YEZVTCWvvT9ZWCGsS-59" value="Student Information Request" style="text;html=1;whiteSpace=wrap;strokeColor=none;fillColor=none;align=center;verticalAlign=middle;rounded=0;" vertex="1" parent="1">
          <mxGeometry x="310" y="420" width="100" height="30" as="geometry" />
        </mxCell>
        <mxCell id="sS6YEZVTCWvvT9ZWCGsS-62" style="edgeStyle=orthogonalEdgeStyle;rounded=0;orthogonalLoop=1;jettySize=auto;html=1;exitX=0;exitY=0.75;exitDx=0;exitDy=0;entryX=0.979;entryY=0.626;entryDx=0;entryDy=0;entryPerimeter=0;" edge="1" parent="1" source="sS6YEZVTCWvvT9ZWCGsS-50" target="sS6YEZVTCWvvT9ZWCGsS-2">
          <mxGeometry relative="1" as="geometry">
            <mxPoint x="330" y="470" as="targetPoint" />
          </mxGeometry>
        </mxCell>
        <mxCell id="sS6YEZVTCWvvT9ZWCGsS-63" value="Student Information&amp;nbsp;" style="text;html=1;whiteSpace=wrap;strokeColor=none;fillColor=none;align=center;verticalAlign=middle;rounded=0;" vertex="1" parent="1">
          <mxGeometry x="360" y="470" width="90" height="30" as="geometry" />
        </mxCell>
        <mxCell id="sS6YEZVTCWvvT9ZWCGsS-65" value="" style="curved=1;endArrow=classic;html=1;rounded=0;exitX=0.628;exitY=0.994;exitDx=0;exitDy=0;exitPerimeter=0;" edge="1" parent="1" source="sS6YEZVTCWvvT9ZWCGsS-2">
          <mxGeometry width="50" height="50" relative="1" as="geometry">
            <mxPoint x="375" y="630" as="sourcePoint" />
            <mxPoint x="500" y="650" as="targetPoint" />
            <Array as="points">
              <mxPoint x="360" y="570" />
              <mxPoint x="390" y="580" />
              <mxPoint x="365" y="650" />
              <mxPoint x="390" y="650" />
              <mxPoint x="400" y="640" />
            </Array>
          </mxGeometry>
        </mxCell>
        <mxCell id="sS6YEZVTCWvvT9ZWCGsS-67" value="" style="endArrow=classic;html=1;rounded=0;entryX=0.5;entryY=1;entryDx=0;entryDy=0;exitX=0.75;exitY=0;exitDx=0;exitDy=0;" edge="1" parent="1" source="sS6YEZVTCWvvT9ZWCGsS-5" target="sS6YEZVTCWvvT9ZWCGsS-2">
          <mxGeometry width="50" height="50" relative="1" as="geometry">
            <mxPoint x="295" y="510" as="sourcePoint" />
            <mxPoint x="180" y="610" as="targetPoint" />
          </mxGeometry>
        </mxCell>
        <mxCell id="sS6YEZVTCWvvT9ZWCGsS-69" value="" style="endArrow=classic;html=1;rounded=0;entryX=0.5;entryY=1;entryDx=0;entryDy=0;exitX=1;exitY=1;exitDx=0;exitDy=0;" edge="1" parent="1" source="sS6YEZVTCWvvT9ZWCGsS-2" target="sS6YEZVTCWvvT9ZWCGsS-6">
          <mxGeometry width="50" height="50" relative="1" as="geometry">
            <mxPoint x="440" y="570" as="sourcePoint" />
            <mxPoint x="490" y="560" as="targetPoint" />
            <Array as="points">
              <mxPoint x="470" y="520" />
              <mxPoint x="610" y="550" />
            </Array>
          </mxGeometry>
        </mxCell>
        <mxCell id="sS6YEZVTCWvvT9ZWCGsS-70" value="New Transaction Record&amp;nbsp;" style="text;html=1;whiteSpace=wrap;strokeColor=none;fillColor=none;align=center;verticalAlign=middle;rounded=0;" vertex="1" parent="1">
          <mxGeometry x="600" y="445" width="60" height="30" as="geometry" />
        </mxCell>
        <mxCell id="sS6YEZVTCWvvT9ZWCGsS-76" value="Updated&amp;nbsp;Fee Status&amp;nbsp;" style="text;html=1;whiteSpace=wrap;strokeColor=none;fillColor=none;align=center;verticalAlign=middle;rounded=0;" vertex="1" parent="1">
          <mxGeometry x="130" y="520" width="80" height="30" as="geometry" />
        </mxCell>
        <mxCell id="sS6YEZVTCWvvT9ZWCGsS-77" value="Fees List&amp;nbsp;" style="text;html=1;whiteSpace=wrap;strokeColor=none;fillColor=none;align=center;verticalAlign=middle;rounded=0;" vertex="1" parent="1">
          <mxGeometry x="245" y="550" width="80" height="30" as="geometry" />
        </mxCell>
      </root>
    </mxGraphModel>
  </diagram>
</mxfile>
